<svg xmlns="http://www.w3.org/2000/svg" version="1.1" xmlns:xlink="http://www.w3.org/1999/xlink" xmlns:svgjs="http://svgjs.dev/svgjs" viewBox="0 0 8.997372060339984 2.2550720636084565"><g transform="matrix(1,0,0,1,2.131690099227296,0.38284835444889287)"><g><path d=" M 0.5865 0.15749999999999975 C 0.5865 0.19799999999999984 0.5655 0.24899999999999978 0.5445 0.30149999999999977 C 0.537 0.3194999999999998 0.531 0.3314999999999998 0.531 0.34199999999999986 C 0.531 0.3689999999999998 0.6 0.4049999999999998 0.624 0.4049999999999998 C 0.636 0.4049999999999998 0.6435 0.39449999999999985 0.6525 0.3809999999999998 C 0.6900000000000001 0.3194999999999998 0.7395 0.22949999999999982 0.7395 0.18599999999999983 C 0.7395 0.11099999999999977 0.5655 -2.220446049250313e-16 0.5025000000000001 -2.220446049250313e-16 C 0.3675 -2.220446049250313e-16 0.105 0.25049999999999983 0.105 0.41549999999999976 C 0.105 0.6134999999999998 0.45 0.6344999999999998 0.45 0.7649999999999998 C 0.45 0.8369999999999999 0.354 0.9599999999999999 0.267 0.9599999999999999 C 0.231 0.9599999999999999 0.1785 0.8879999999999998 0.1785 0.8549999999999998 C 0.1785 0.8159999999999998 0.20700000000000002 0.7574999999999998 0.20700000000000002 0.7379999999999998 C 0.20700000000000002 0.7169999999999999 0.1455 0.6764999999999999 0.129 0.6764999999999999 C 0.099 0.6764999999999999 0 0.7934999999999999 0 0.8384999999999998 C 0 0.9254999999999998 0.183 1.0649999999999997 0.3075 1.0649999999999997 C 0.462 1.0649999999999997 0.651 0.8549999999999998 0.651 0.7259999999999998 C 0.651 0.5744999999999998 0.306 0.5609999999999998 0.306 0.43049999999999977 C 0.306 0.3059999999999998 0.47100000000000003 0.11099999999999977 0.531 0.11099999999999977 C 0.5535 0.11099999999999977 0.5865 0.13649999999999984 0.5865 0.15749999999999975 M 1.066471435546875 0.9344999999999998 C 1.066471435546875 1.0019999999999998 1.192471435546875 1.0649999999999997 1.2599714355468752 1.0649999999999997 C 1.369471435546875 1.0649999999999997 1.456471435546875 0.9284999999999999 1.538971435546875 0.7784999999999997 C 1.538971435546875 0.7784999999999997 1.558471435546875 0.7439999999999998 1.558471435546875 0.7259999999999998 C 1.558471435546875 0.7079999999999997 1.526971435546875 0.6839999999999998 1.507471435546875 0.6839999999999998 C 1.487971435546875 0.6839999999999998 1.4744714355468749 0.7109999999999999 1.4744714355468749 0.7109999999999999 C 1.400971435546875 0.8459999999999999 1.3184714355468752 0.9614999999999998 1.2749714355468749 0.9614999999999998 C 1.261471435546875 0.9614999999999998 1.235971435546875 0.9389999999999998 1.235971435546875 0.9194999999999998 C 1.235971435546875 0.8399999999999999 1.3289714355468751 0.5474999999999998 1.3289714355468751 0.47699999999999976 C 1.3289714355468751 0.42149999999999976 1.2464714355468751 0.35999999999999976 1.202971435546875 0.35999999999999976 C 1.112971435546875 0.35999999999999976 0.988471435546875 0.4604999999999998 0.988471435546875 0.4604999999999998 C 0.988471435546875 0.4604999999999998 1.030471435546875 0.31799999999999984 1.066471435546875 0.19199999999999984 C 1.069471435546875 0.17999999999999983 1.073971435546875 0.1649999999999998 1.073971435546875 0.15449999999999975 C 1.073971435546875 0.12899999999999978 0.973471435546875 0.07499999999999984 0.944971435546875 0.07499999999999984 C 0.932971435546875 0.07499999999999984 0.919471435546875 0.08399999999999985 0.913471435546875 0.10649999999999982 C 0.8699714355468751 0.23999999999999977 0.6884714355468751 0.9314999999999998 0.6884714355468751 0.9854999999999998 C 0.6884714355468751 1.0259999999999998 0.776971435546875 1.0649999999999997 0.812971435546875 1.0649999999999997 C 0.833971435546875 1.0649999999999997 0.838471435546875 1.0499999999999998 0.844471435546875 1.0304999999999997 C 0.853471435546875 0.9839999999999998 0.913471435546875 0.7379999999999998 0.953971435546875 0.6104999999999998 C 0.973471435546875 0.5459999999999998 1.060471435546875 0.4904999999999998 1.096471435546875 0.4904999999999998 C 1.115971435546875 0.4904999999999998 1.1414714355468751 0.5159999999999998 1.1414714355468751 0.5414999999999998 C 1.1414714355468751 0.5984999999999998 1.066471435546875 0.8384999999999998 1.066471435546875 0.9344999999999998 M 2.254442138671875 0.7784999999999997 C 2.254442138671875 0.7784999999999997 2.275442138671875 0.7439999999999998 2.275442138671875 0.7259999999999998 C 2.275442138671875 0.7079999999999997 2.242442138671875 0.6839999999999998 2.221442138671875 0.6839999999999998 C 2.2034421386718748 0.6839999999999998 2.189942138671875 0.7109999999999999 2.189942138671875 0.7109999999999999 C 2.189942138671875 0.7109999999999999 2.119442138671875 0.8579999999999999 2.012942138671875 0.8579999999999999 C 1.997942138671875 0.8579999999999999 1.985942138671875 0.8564999999999998 1.973942138671875 0.8519999999999999 C 2.021942138671875 0.7529999999999999 2.0519421386718752 0.6419999999999998 2.0519421386718752 0.5624999999999998 C 2.0519421386718752 0.4694999999999998 1.888442138671875 0.35999999999999976 1.7729421386718751 0.35999999999999976 C 1.612442138671875 0.35999999999999976 1.463942138671875 0.6494999999999997 1.463942138671875 0.8579999999999999 C 1.463942138671875 0.9659999999999999 1.636442138671875 1.0649999999999997 1.741442138671875 1.0649999999999997 C 1.804442138671875 1.0649999999999997 1.862942138671875 1.0199999999999998 1.912442138671875 0.9539999999999998 C 1.933442138671875 0.9554999999999998 1.954442138671875 0.9554999999999998 1.972442138671875 0.9554999999999998 C 2.162942138671875 0.9554999999999998 2.254442138671875 0.7784999999999997 2.254442138671875 0.7784999999999997 M 1.643942138671875 0.8939999999999998 C 1.643942138671875 0.7259999999999998 1.766942138671875 0.47099999999999986 1.843442138671875 0.47099999999999986 C 1.8734421386718751 0.47099999999999986 1.913942138671875 0.4979999999999998 1.913942138671875 0.5309999999999998 C 1.913942138671875 0.6029999999999998 1.883942138671875 0.7049999999999998 1.846442138671875 0.7904999999999998 C 1.811942138671875 0.7964999999999998 1.750442138671875 0.8579999999999999 1.750442138671875 0.8879999999999998 C 1.750442138671875 0.9014999999999999 1.757942138671875 0.9119999999999998 1.769942138671875 0.9209999999999998 C 1.748942138671875 0.9464999999999998 1.727942138671875 0.9614999999999998 1.711442138671875 0.9614999999999998 C 1.681442138671875 0.9614999999999998 1.643942138671875 0.9314999999999998 1.643942138671875 0.8939999999999998 M 2.335412109375 0.8729999999999998 C 2.335412109375 0.8234999999999998 2.372912109375 0.6989999999999998 2.402912109375 0.6149999999999998 C 2.425412109375 0.5489999999999998 2.518412109375 0.4784999999999998 2.555912109375 0.4784999999999998 C 2.579912109375 0.4784999999999998 2.612912109375 0.5084999999999998 2.612912109375 0.5384999999999998 C 2.612912109375 0.5954999999999998 2.588912109375 0.7004999999999998 2.555912109375 0.7919999999999998 C 2.549912109375 0.7919999999999998 2.543912109375 0.7904999999999998 2.537912109375 0.7904999999999998 C 2.5049121093749998 0.7904999999999998 2.441912109375 0.8519999999999999 2.441912109375 0.8834999999999998 C 2.441912109375 0.8999999999999998 2.459912109375 0.9134999999999998 2.486912109375 0.9254999999999998 C 2.473412109375 0.9419999999999998 2.453912109375 0.9554999999999998 2.438912109375 0.9554999999999998 C 2.389412109375 0.9554999999999998 2.335412109375 0.9134999999999998 2.335412109375 0.8729999999999998 M 2.648912109375 0.9539999999999998 C 2.648912109375 0.9539999999999998 2.686412109375 0.9554999999999998 2.7044121093749998 0.9554999999999998 C 2.894912109375 0.9554999999999998 2.986412109375 0.7784999999999997 2.986412109375 0.7784999999999997 C 2.986412109375 0.7784999999999997 3.007412109375 0.7439999999999998 3.007412109375 0.7259999999999998 C 3.007412109375 0.7079999999999997 2.974412109375 0.6839999999999998 2.953412109375 0.6839999999999998 C 2.935412109375 0.6839999999999998 2.921912109375 0.7109999999999999 2.921912109375 0.7109999999999999 C 2.921912109375 0.7109999999999999 2.851412109375 0.8579999999999999 2.744912109375 0.8579999999999999 C 2.729912109375 0.8579999999999999 2.705912109375 0.8519999999999999 2.705912109375 0.8519999999999999 C 2.7629121093749998 0.7349999999999999 2.789912109375 0.6074999999999998 2.789912109375 0.5204999999999999 C 2.789912109375 0.44399999999999984 2.678912109375 0.35999999999999976 2.612912109375 0.35999999999999976 C 2.525912109375 0.35999999999999976 2.437412109375 0.4484999999999998 2.437412109375 0.4484999999999998 C 2.437412109375 0.4484999999999998 2.357912109375 0.35999999999999976 2.332412109375 0.35999999999999976 C 2.311412109375 0.35999999999999976 2.288912109375 0.37049999999999983 2.284412109375 0.39149999999999985 C 2.228912109375 0.5849999999999997 2.048912109375 1.287 2.048912109375 1.3394999999999997 C 2.048912109375 1.3784999999999998 2.1299121093749998 1.416 2.167412109375 1.416 C 2.191412109375 1.416 2.2004121093749998 1.4024999999999999 2.204912109375 1.3829999999999998 C 2.215412109375 1.311 2.288912109375 0.9959999999999998 2.288912109375 0.9959999999999998 C 2.288912109375 0.9959999999999998 2.366912109375 1.0649999999999997 2.482412109375 1.0649999999999997 C 2.543912109375 1.0649999999999997 2.603912109375 1.0124999999999997 2.648912109375 0.9539999999999998 M 3.523453125 0.15749999999999975 C 3.523453125 0.19799999999999984 3.502453125 0.24899999999999978 3.481453125 0.30149999999999977 C 3.473953125 0.3194999999999998 3.467953125 0.3314999999999998 3.467953125 0.34199999999999986 C 3.467953125 0.3689999999999998 3.536953125 0.4049999999999998 3.560953125 0.4049999999999998 C 3.572953125 0.4049999999999998 3.580453125 0.39449999999999985 3.589453125 0.3809999999999998 C 3.626953125 0.3194999999999998 3.676453125 0.22949999999999982 3.676453125 0.18599999999999983 C 3.676453125 0.11099999999999977 3.502453125 -2.220446049250313e-16 3.439453125 -2.220446049250313e-16 C 3.304453125 -2.220446049250313e-16 3.041953125 0.25049999999999983 3.041953125 0.41549999999999976 C 3.041953125 0.6134999999999998 3.3869531250000002 0.6344999999999998 3.3869531250000002 0.7649999999999998 C 3.3869531250000002 0.8369999999999999 3.290953125 0.9599999999999999 3.203953125 0.9599999999999999 C 3.167953125 0.9599999999999999 3.115453125 0.8879999999999998 3.115453125 0.8549999999999998 C 3.115453125 0.8159999999999998 3.143953125 0.7574999999999998 3.143953125 0.7379999999999998 C 3.143953125 0.7169999999999999 3.0824531250000002 0.6764999999999999 3.065953125 0.6764999999999999 C 3.0359531250000003 0.6764999999999999 2.936953125 0.7934999999999999 2.936953125 0.8384999999999998 C 2.936953125 0.9254999999999998 3.119953125 1.0649999999999997 3.244453125 1.0649999999999997 C 3.3989531250000002 1.0649999999999997 3.5879531250000003 0.8549999999999998 3.5879531250000003 0.7259999999999998 C 3.5879531250000003 0.5744999999999998 3.242953125 0.5609999999999998 3.242953125 0.43049999999999977 C 3.242953125 0.3059999999999998 3.407953125 0.11099999999999977 3.467953125 0.11099999999999977 C 3.490453125 0.11099999999999977 3.523453125 0.13649999999999984 3.523453125 0.15749999999999975 M 4.105424560546875 0.5234999999999999 C 4.105424560546875 0.5654999999999999 4.058924560546875 0.7469999999999999 4.0289245605468755 0.8099999999999998 C 3.9869245605468753 0.8969999999999998 3.911924560546875 0.9494999999999998 3.8819245605468753 0.9494999999999998 C 3.856424560546875 0.9494999999999998 3.829424560546875 0.9239999999999998 3.829424560546875 0.8894999999999998 C 3.829424560546875 0.7574999999999998 3.949424560546875 0.47999999999999976 4.024424560546875 0.47999999999999976 C 4.048424560546875 0.47999999999999976 4.105424560546875 0.49949999999999983 4.105424560546875 0.5234999999999999 M 4.432424560546875 0.7109999999999999 C 4.358924560546875 0.8459999999999999 4.277924560546875 0.9614999999999998 4.232924560546875 0.9614999999999998 C 4.219424560546875 0.9614999999999998 4.1924245605468755 0.9389999999999998 4.1924245605468755 0.9194999999999998 C 4.1924245605468755 0.7994999999999999 4.294424560546875 0.5504999999999998 4.294424560546875 0.4979999999999998 C 4.294424560546875 0.4604999999999998 4.204424560546875 0.44999999999999984 4.165424560546875 0.44999999999999984 C 4.165424560546875 0.44999999999999984 4.088924560546875 0.35999999999999976 3.968924560546875 0.35999999999999976 C 3.832424560546875 0.35999999999999976 3.653924560546875 0.6914999999999998 3.653924560546875 0.8894999999999998 C 3.653924560546875 0.9704999999999998 3.7784245605468754 1.0649999999999997 3.8474245605468753 1.0649999999999997 C 3.923924560546875 1.0649999999999997 4.013924560546875 0.9659999999999999 4.013924560546875 0.9659999999999999 C 4.025924560546875 1.0079999999999998 4.150424560546875 1.0649999999999997 4.217924560546875 1.0649999999999997 C 4.325924560546875 1.0649999999999997 4.414424560546875 0.9284999999999999 4.4969245605468755 0.7784999999999997 C 4.4969245605468755 0.7784999999999997 4.516424560546875 0.7439999999999998 4.516424560546875 0.7259999999999998 C 4.516424560546875 0.7079999999999997 4.484924560546875 0.6839999999999998 4.465424560546875 0.6839999999999998 C 4.445924560546875 0.6839999999999998 4.432424560546875 0.7109999999999999 4.432424560546875 0.7109999999999999 M 5.167452392578125 0.7784999999999997 C 5.167452392578125 0.7784999999999997 5.1884523925781245 0.7439999999999998 5.1884523925781245 0.7259999999999998 C 5.1884523925781245 0.7079999999999997 5.156952392578125 0.6839999999999998 5.135952392578125 0.6839999999999998 C 5.1179523925781245 0.6839999999999998 5.102952392578125 0.7109999999999999 5.102952392578125 0.7109999999999999 C 5.102952392578125 0.7109999999999999 5.021952392578125 0.8744999999999998 4.922952392578125 0.8744999999999998 C 4.889952392578125 0.8744999999999998 4.865952392578125 0.8594999999999998 4.841952392578125 0.8429999999999997 C 4.955952392578125 0.7034999999999998 5.044452392578124 0.5369999999999998 5.044452392578124 0.45899999999999985 C 5.044452392578124 0.4169999999999998 4.960452392578125 0.35999999999999976 4.933452392578125 0.35999999999999976 C 4.9064523925781245 0.35999999999999976 4.900452392578125 0.37049999999999983 4.895952392578125 0.3929999999999998 C 4.864452392578125 0.5609999999999998 4.799952392578125 0.6974999999999998 4.739952392578125 0.7904999999999998 L 4.735452392578125 0.7904999999999998 C 4.702452392578125 0.7904999999999998 4.634952392578125 0.8564999999999998 4.634952392578125 0.8879999999999998 C 4.634952392578125 0.8969999999999998 4.637952392578125 0.9029999999999998 4.645452392578125 0.9104999999999999 C 4.627452392578125 0.9254999999999998 4.615452392578125 0.9329999999999998 4.607952392578125 0.9329999999999998 C 4.586952392578125 0.9329999999999998 4.574952392578125 0.9164999999999999 4.574952392578125 0.9014999999999999 C 4.574952392578125 0.8084999999999998 4.691952392578125 0.4904999999999998 4.691952392578125 0.4424999999999998 C 4.691952392578125 0.4139999999999998 4.597452392578125 0.35999999999999976 4.580952392578125 0.35999999999999976 C 4.558452392578125 0.35999999999999976 4.538952392578125 0.37049999999999983 4.529952392578124 0.39149999999999985 C 4.496952392578125 0.48899999999999977 4.3919523925781245 0.8834999999999998 4.3919523925781245 0.9314999999999998 C 4.3919523925781245 1.005 4.493952392578125 1.0649999999999997 4.5314523925781245 1.0649999999999997 C 4.594452392578125 1.0649999999999997 4.669452392578125 1.0184999999999997 4.7429523925781245 0.9509999999999998 C 4.805952392578125 0.9659999999999999 4.8839523925781245 0.9734999999999998 4.927452392578125 0.9734999999999998 C 5.060952392578125 0.9734999999999998 5.167452392578125 0.7784999999999997 5.167452392578125 0.7784999999999997 M 5.837969970703124 0.7784999999999997 C 5.837969970703124 0.7784999999999997 5.858969970703124 0.7439999999999998 5.858969970703124 0.7259999999999998 C 5.858969970703124 0.7079999999999997 5.827469970703125 0.6839999999999998 5.806469970703125 0.6839999999999998 C 5.788469970703124 0.6839999999999998 5.7734699707031245 0.7109999999999999 5.7734699707031245 0.7109999999999999 C 5.7734699707031245 0.7109999999999999 5.692469970703124 0.8744999999999998 5.593469970703125 0.8744999999999998 C 5.560469970703124 0.8744999999999998 5.536469970703124 0.8594999999999998 5.512469970703124 0.8429999999999997 C 5.626469970703124 0.7034999999999998 5.714969970703125 0.5369999999999998 5.714969970703125 0.45899999999999985 C 5.714969970703125 0.4169999999999998 5.630969970703124 0.35999999999999976 5.603969970703124 0.35999999999999976 C 5.576969970703124 0.35999999999999976 5.570969970703125 0.37049999999999983 5.566469970703125 0.3929999999999998 C 5.534969970703124 0.5609999999999998 5.470469970703125 0.6974999999999998 5.410469970703124 0.7904999999999998 L 5.405969970703125 0.7904999999999998 C 5.372969970703124 0.7904999999999998 5.3054699707031245 0.8564999999999998 5.3054699707031245 0.8879999999999998 C 5.3054699707031245 0.8969999999999998 5.308469970703125 0.9029999999999998 5.315969970703125 0.9104999999999999 C 5.297969970703124 0.9254999999999998 5.285969970703125 0.9329999999999998 5.278469970703124 0.9329999999999998 C 5.2574699707031245 0.9329999999999998 5.245469970703125 0.9164999999999999 5.245469970703125 0.9014999999999999 C 5.245469970703125 0.8084999999999998 5.362469970703125 0.4904999999999998 5.362469970703125 0.4424999999999998 C 5.362469970703125 0.4139999999999998 5.267969970703125 0.35999999999999976 5.251469970703124 0.35999999999999976 C 5.228969970703124 0.35999999999999976 5.2094699707031245 0.37049999999999983 5.200469970703124 0.39149999999999985 C 5.167469970703125 0.48899999999999977 5.062469970703124 0.8834999999999998 5.062469970703124 0.9314999999999998 C 5.062469970703124 1.005 5.1644699707031245 1.0649999999999997 5.201969970703124 1.0649999999999997 C 5.264969970703125 1.0649999999999997 5.339969970703125 1.0184999999999997 5.413469970703124 0.9509999999999998 C 5.476469970703125 0.9659999999999999 5.554469970703124 0.9734999999999998 5.597969970703124 0.9734999999999998 C 5.731469970703125 0.9734999999999998 5.837969970703124 0.7784999999999997 5.837969970703124 0.7784999999999997 M 6.389987548828124 0.4754999999999998 C 6.391487548828124 0.4664999999999998 6.395987548828124 0.44999999999999984 6.395987548828124 0.4394999999999998 C 6.395987548828124 0.41249999999999976 6.296987548828124 0.35999999999999976 6.268487548828125 0.35999999999999976 C 6.254987548828124 0.35999999999999976 6.2414875488281245 0.3674999999999998 6.235487548828124 0.38849999999999985 C 6.2174875488281245 0.44999999999999984 6.176987548828124 0.6569999999999998 6.130487548828124 0.7664999999999997 C 6.110987548828124 0.8129999999999998 6.020987548828124 0.9464999999999998 5.9609875488281245 0.9464999999999998 C 5.947487548828124 0.9464999999999998 5.920487548828124 0.9239999999999998 5.920487548828124 0.9044999999999999 C 5.920487548828124 0.8414999999999998 6.017987548828124 0.5129999999999998 6.026987548828124 0.4754999999999998 C 6.0299875488281245 0.4664999999999998 6.032987548828125 0.44999999999999984 6.032987548828125 0.4394999999999998 C 6.032987548828125 0.41249999999999976 5.933987548828124 0.35999999999999976 5.905487548828124 0.35999999999999976 C 5.891987548828125 0.35999999999999976 5.879987548828124 0.3674999999999998 5.872487548828124 0.38849999999999985 C 5.837987548828124 0.4814999999999998 5.740487548828124 0.8489999999999998 5.740487548828124 0.9194999999999998 C 5.740487548828124 0.9824999999999998 5.857487548828124 1.0649999999999997 5.9354875488281245 1.0649999999999997 C 5.992487548828124 1.0649999999999997 6.058487548828124 0.9989999999999998 6.115487548828124 0.9329999999999998 C 6.115487548828124 0.9329999999999998 6.095987548828124 1.0034999999999998 6.071987548828124 1.0844999999999998 C 5.906987548828124 1.1834999999999998 5.770487548828124 1.275 5.770487548828124 1.3695 C 5.770487548828124 1.4204999999999999 5.882987548828124 1.515 5.962487548828125 1.515 C 6.020987548828124 1.515 6.106487548828124 1.4879999999999998 6.131987548828124 1.4385 C 6.151487548828124 1.398 6.196487548828125 1.2434999999999998 6.242987548828125 1.0679999999999998 C 6.362987548828125 0.9989999999999998 6.491987548828124 0.9254999999999998 6.572987548828124 0.7784999999999997 C 6.572987548828124 0.7784999999999997 6.5924875488281245 0.7439999999999998 6.5924875488281245 0.7259999999999998 C 6.5924875488281245 0.7079999999999997 6.559487548828124 0.6839999999999998 6.541487548828124 0.6839999999999998 C 6.5234875488281245 0.6839999999999998 6.508487548828124 0.7109999999999999 6.508487548828124 0.7109999999999999 C 6.4514875488281245 0.8204999999999998 6.364487548828125 0.8999999999999998 6.269987548828124 0.9644999999999998 L 6.278987548828124 0.9329999999999998 C 6.329987548828124 0.7334999999999998 6.377987548828124 0.5369999999999998 6.389987548828124 0.4754999999999998 M 5.987987548828125 1.3469999999999998 C 5.972987548828124 1.3784999999999998 5.926487548828124 1.398 5.903987548828124 1.398 C 5.884487548828124 1.398 5.8649875488281245 1.3754999999999997 5.8649875488281245 1.3575 C 5.8649875488281245 1.3155 5.9369875488281245 1.2584999999999997 6.040487548828124 1.1909999999999998 C 6.019487548828124 1.2599999999999998 5.999987548828124 1.3215 5.987987548828125 1.3469999999999998" fill="#de6d2e" fill-rule="nonzero"></path></g><g></g><g clip-path="url(&quot;#SvgjsClipPath1001&quot;)"><path d=" M -1.7744663900677327 -0.025624645289329506 L -0.40000000000000013 -0.025624645289329506 L -0.40000000000000013 1.0756246452893294 L -1.7744663900677327 1.0756246452893294 Z" fill="#de6d2e" transform="matrix(1,0,0,1,0,0)" fill-rule="nonzero" mask="url(#maskedText)"></path></g></g><defs><clipPath id="SvgjsClipPath1001"><path d=" M -1.7744663900677327 -0.025624645289329506 h 1.3744663900677325 v 1.1012492905786588 h -1.3744663900677325 Z"></path></clipPath><mask id="maskedText"><path d=" M -1.0872331950338663 1.0538343244711823 C -0.7076860346663332 1.0538343244711823 -0.40000000000000013 0.8121897236690792 -0.40000000000000013 0.5141048395909265 C -0.40000000000000013 0.21601995551277361 -0.7076860346663332 -0.025624645289329506 -1.0872331950338663 -0.025624645289329506 C -1.4667803554013994 -0.025624645289329506 -1.7744663900677327 0.21601995551277361 -1.7744663900677327 0.5141048395909265 C -1.7744663900677327 0.6351383384860615 -1.7237385232030864 0.7468656942133236 -1.6380656864602303 0.8368965951198089 L -1.741291464711366 1.0756246452893294 L -1.420457485699068 0.9862642157926329 C -1.3151943277403146 1.0314088968349107 -1.2017672253144385 1.0544092658137434 -1.0872331950338665 1.0538343244711823 Z" fill="#ffffff" transform="matrix(1,0,0,1,0,0)" fill-rule="nonzero"></path><path d=" M -0.8405757380983658 0.6140463118485058 C -0.8405757380983658 0.6560030621692008 -0.8478492623327928 0.692676936993312 -0.8623963108016469 0.7240679363208393 C -0.876943359270501 0.7554589356483666 -0.896849846648933 0.78156705947931 -0.9221157729369428 0.8023923078136697 C -0.9473816992249526 0.8232175561480293 -0.9769351766406247 0.838836492398799 -1.010776205183959 0.8492491165659787 C -1.0446172337272932 0.8596617407331585 -1.0809848548994285 0.8648680528167484 -1.1198790687003648 0.8648680528167484 C -1.1348854976471827 0.8648680528167484 -1.1513466314408862 0.8628774040789052 -1.1692624700814749 0.8588961066032188 C -1.1871783087220638 0.8549148091275325 -1.2053238376016344 0.8499381872829245 -1.2236990567201869 0.8439662410693949 C -1.2420742758387395 0.8379942948558653 -1.2597604242403464 0.8315629681643719 -1.2767575019250075 0.8246722609949146 C -1.2937545796096686 0.8177815538254575 -1.3088375719694805 0.8112736637209701 -1.3220064790044432 0.8051485906814525 L -1.3017937379740354 0.615883833760361 C -1.275762177556086 0.6315027700111308 -1.2468977708573596 0.6433700990251959 -1.2152005178778564 0.6514858208025567 C -1.1835032648983532 0.6596015425799173 -1.1523419558098078 0.6636594034685978 -1.1217165906122202 0.6636594034685978 C -1.1158977712246785 0.6636594034685978 -1.1088539372292334 0.6634297132296159 -1.1005850886258848 0.662970332751652 C -1.092316240022536 0.6625109522736882 -1.0844302084841573 0.6611328108397967 -1.0769269940107482 0.6588359084499776 C -1.0694237795373391 0.6565390060601586 -1.0630690162588399 0.65309365247543 -1.05786270417525 0.6484998476957918 C -1.05265639209166 0.6439060429161537 -1.0500532360498651 0.6373215893986723 -1.0500532360498651 0.6287464871433478 C -1.0500532360498651 0.6229276677558062 -1.0518907579617203 0.6179510459111982 -1.0555658017854308 0.6138166216095239 C -1.0592408456091413 0.6096821973078496 -1.0639877772147674 0.6063134071361149 -1.0698065966023091 0.60371025109432 C -1.0756254159898506 0.601107095052525 -1.0822098695073321 0.5991164463146819 -1.0895599571547532 0.5977383048807904 C -1.0969100448021742 0.5963601634468989 -1.1041070056236073 0.5953648390779773 -1.1111508396190524 0.5947523317740255 C -1.1181946736144976 0.5941398244700737 -1.124779127131979 0.593833570818098 -1.1309042001714964 0.593833570818098 C -1.1370292732110139 0.593833570818098 -1.141929331642628 0.593833570818098 -1.1456043754663385 0.593833570818098 C -1.1719421895362638 0.593833570818098 -1.1959065378033762 0.5892397660384598 -1.2174974202676754 0.5800521564791835 C -1.2390883027319748 0.5708645469199072 -1.2576166486765152 0.5580784569499144 -1.273082458101297 0.541693886569205 C -1.2885482675260787 0.5253093161884956 -1.3005687233661318 0.5058622092880275 -1.3091438256214565 0.48335256586780057 C -1.317718927876781 0.4608429224475737 -1.3220064790044432 0.43641919370249754 -1.3220064790044432 0.4100813796325722 C -1.3220064790044432 0.37394344869941876 -1.3147329547700162 0.34155712500296986 -1.300185906301162 0.3129224085432254 C -1.285638857832308 0.28428769208348104 -1.2661917509318397 0.2599405267513989 -1.2418445855997575 0.23988091254697896 C -1.2174974202676754 0.21982129834255903 -1.1895517745248767 0.20443205233077122 -1.1580076483713615 0.19371317451161563 C -1.1264635222178463 0.18299429669246003 -1.0938475082824155 0.17763485778288213 -1.060159606565069 0.17763485778288213 C -1.0451531776182512 0.17763485778288213 -1.0296873681934693 0.17817080167383992 -1.0137621782907238 0.1792426894557555 C -0.9978369883879783 0.18031457723767097 -0.9819883618982266 0.18222866256252024 -0.966216298821469 0.1849849454303032 C -0.9504442357447114 0.18774122829808604 -0.9350549897329236 0.19126314529580868 -0.9200485607861056 0.1955506964234709 C -0.9050421318392877 0.1998382475511331 -0.8908013370224095 0.20519768646071102 -0.8773261763354709 0.2116290131522044 L -0.8947826344980958 0.398137487205513 C -0.9156078828324554 0.39109365321006784 -0.9374284555357366 0.3851982704095322 -0.9602443526079394 0.38045133880390614 C -0.9830602496801422 0.37570440719828013 -1.0053402028613871 0.373330941395467 -1.0270842121516743 0.373330941395467 C -1.0310655096273607 0.373330941395467 -1.0361952582979568 0.373407504808461 -1.042473458163462 0.37356063163444897 C -1.0487516580289675 0.37371375846043686 -1.055336111546449 0.37417313893840065 -1.062226818715906 0.3749387730683404 C -1.0691175258853634 0.37570440719828013 -1.0760847964678146 0.37685285839318966 -1.0831286304632597 0.378384126653069 C -1.090172464458705 0.37991539491294835 -1.0964506643242102 0.3819826070637855 -1.1019632300597761 0.3845857631055805 C -1.1074757957953418 0.38718891914737547 -1.1119164737489922 0.39063427273210405 -1.1152852639207267 0.3949218238597663 C -1.1186540540924614 0.3992093749874286 -1.1201853223523408 0.40426256024503054 -1.1198790687003648 0.4100813796325722 C -1.119572815048389 0.41681895997604146 -1.117046222419588 0.42225496229861326 -1.112299290813962 0.4263893866002876 C -1.1075523592083358 0.4305238109019619 -1.1014272861688184 0.43373947424770865 -1.0939240716954093 0.4360363766375277 C -1.0864208572220004 0.43833327902734676 -1.0781520086186518 0.43994111070022013 -1.0691175258853634 0.44085987165614776 C -1.0600830431520751 0.4417786326120754 -1.0511251238317807 0.44231457650303313 -1.0422437679244803 0.4424677033290211 C -1.0333624120171798 0.4426208301550091 -1.0250935634138312 0.4426208301550091 -1.0174372221144343 0.4424677033290211 C -1.0097808808150375 0.44231457650303313 -1.003502680949532 0.442544266742015 -0.9986026225179179 0.4431567740459668 C -0.9741023303598477 0.44468804230584624 -0.9520520674175847 0.4498943543894361 -0.9324518336911286 0.4587757102967365 C -0.9128515999646726 0.46765706620403696 -0.8962373393449812 0.47944783180510814 -0.8826090518320548 0.4941480070999502 C -0.8689807643191283 0.5088481823947923 -0.8585681401519485 0.5263812039704112 -0.8513711793305154 0.546747071826807 C -0.8441742185090823 0.5671129396832028 -0.8405757380983658 0.5895460196904356 -0.8405757380983658 0.6140463118485058" fill="NA" transform="matrix(1,0,0,1,0,0)" fill-rule="nonzero"></path></mask></defs></svg>